<svg width="97" height="149" viewBox="0 0 97 149" fill="none" xmlns="http://www.w3.org/2000/svg">
<path d="M88.75 44.375C88.75 46.7083 87.9167 48.6667 86.25 50.25C84.6667 51.9167 82.7083 52.75 80.375 52.75H30.375C28.7917 52.8333 27.4583 53.2083 26.375 53.875C25.375 54.4583 24.625 55.1667 24.125 56C23.625 56.75 23.375 57.5417 23.375 58.375C23.375 59.2083 23.625 60.0417 24.125 60.875C24.625 61.625 25.375 62.3333 26.375 63C27.4583 63.5833 28.7917 63.9167 30.375 64H65.875C71.7083 64.1667 76.5 65.5417 80.25 68.125C84.0833 70.625 86.7917 73.5417 88.375 76.875C90.0417 80.125 90.875 83.4583 90.875 86.875C90.875 90.2083 90.0417 93.5417 88.375 96.875C86.7083 100.125 84 103.042 80.25 105.625C76.5 108.125 71.7083 109.375 65.875 109.375H65.125C64.625 109.458 64.125 109.5 63.625 109.5H16.375C14.0417 109.5 12.0417 108.708 10.375 107.125C8.79167 105.458 8 103.458 8 101.125C8 98.7917 8.83333 96.8333 10.5 95.25C12.0833 93.5833 14.0417 92.75 16.375 92.75H66.625C68.2083 92.8333 69.5 92.5417 70.5 91.875C71.5833 91.2083 72.375 90.4583 72.875 89.625C73.375 88.7083 73.625 87.7917 73.625 86.875C73.625 86.2917 73.375 85.5 72.875 84.5C72.375 83.4167 71.5833 82.5417 70.5 81.875C69.5 81.2083 68.2083 80.8333 66.625 80.75H31.125C25.2917 80.5833 20.4583 79.25 16.625 76.75C12.875 74.25 10.1667 71.4167 8.5 68.25C6.91667 65 6.125 61.7083 6.125 58.375C6.125 55.125 6.95833 51.9167 8.625 48.75C10.2917 45.5 13 42.625 16.75 40.125C20.5 37.625 25.2917 36.2917 31.125 36.125H31.875C32.375 36.0417 32.875 36 33.375 36H80.375C82.7083 36 84.6667 36.8333 86.25 38.5C87.9167 40.0833 88.75 42.0417 88.75 44.375Z" fill="#00B2FF"/>
</svg>
